<svg width="6" height="11" viewBox="0 0 6 11" fill="none" xmlns="http://www.w3.org/2000/svg">
<path d="M0.313594 9.53327C0.15927 9.69307 0.0727539 9.90259 0.0710688 10.1206C0.0693831 10.3386 0.152651 10.5494 0.304489 10.7114C0.456326 10.8733 0.665739 10.9749 0.891526 10.9959C1.11731 11.017 1.34313 10.9561 1.52454 10.8252L0.313594 9.53327ZM1.52454 0.222341C1.43554 0.145816 1.33171 0.086911 1.219 0.0489985C1.10628 0.011086 0.986896 -0.00509127 0.86767 0.00139501C0.748444 0.00788129 0.631719 0.0369038 0.524176 0.0867989C0.416633 0.136694 0.320385 0.206486 0.240939 0.292175C0.159405 0.375252 0.0961342 0.473274 0.0549088 0.580384C0.0136833 0.687495 -0.00465107 0.801496 0.00100088 0.915571C0.00665283 1.02965 0.0361748 1.14145 0.0878034 1.24432C0.139432 1.34718 0.212108 1.43898 0.301486 1.51423L1.52454 0.222341ZM1.52454 10.8252L4.90307 7.90385L3.69213 6.61197L0.313594 9.53327L1.52454 10.8252ZM4.90307 3.15528L1.53665 0.222341L0.325704 1.51423L3.69213 4.48209L4.90307 3.15528ZM4.90307 7.90385C5.24843 7.60378 5.5245 7.23745 5.71344 6.82849C5.90238 6.41953 6 5.97704 6 5.52957C6 5.08211 5.90238 4.63961 5.71344 4.23065C5.5245 3.82169 5.24843 3.45535 4.90307 3.15528L3.69213 4.44718C3.8469 4.58551 3.97034 4.75302 4.05474 4.93925C4.13915 5.12548 4.18272 5.32644 4.18272 5.52957C4.18272 5.7327 4.13915 5.93366 4.05474 6.11989C3.97034 6.30612 3.8469 6.47363 3.69213 6.61197L4.90307 7.90385Z" fill="#BEBEBE"/>
</svg>
